<svg xmlns="http://www.w3.org/2000/svg" xmlns:xlink="http://www.w3.org/1999/xlink" fill="none" version="1.1" width="52.8358154296875" height="56.68017578125" viewBox="0 0 52.8358154296875 56.68017578125"><g><g><path d="M52.835819,30.26214828125Q52.835819,30.91067128125,52.803997,31.55841228125Q52.772179,32.20615428125,52.708611,32.85155528125Q52.645042,33.49695428125,52.549881,34.138458281249996Q52.45472,34.77996028125,52.328201,35.41602328125Q52.201679,36.05208628125,52.044102,36.68117528125Q51.88652,37.31026428125,51.698265,37.93086228125Q51.51001,38.55146028125,51.291527,39.16207128125Q51.073044,39.77268228125,50.824867,40.37184128125Q50.576687,40.97100028125,50.299408,41.55725828125Q50.022129,42.14351628125,49.716419,42.71546128125Q49.410706,43.28740728125,49.077301,43.84366628125Q48.743889,44.39992128125,48.383591,44.93914828125Q48.023293,45.47837428125,47.636967,45.99927528125Q47.250641,46.52017228125,46.839226,47.02148828125Q46.427803,47.52280428125,45.992283,48.00332628125Q45.556763,48.48385228125,45.09819,48.94242828125Q44.639614,49.40100128125,44.159088,49.83652128125Q43.678566,50.27204128125,43.17725,50.68346428125Q42.675934,51.09487928125,42.155037,51.48120528125Q41.634136,51.86753128125,41.09491,52.22782928125Q40.555683,52.58812728125,39.999428,52.92153928125Q39.443169,53.25494728125,38.871223,53.56066128125Q38.299278,53.86637128125,37.71302,54.14364628125Q37.126762,54.42092528125,36.527603,54.66910528125Q35.928444,54.91728228125,35.317833,55.13576528125Q34.707222,55.35424828125,34.08662,55.54250728125Q33.466022,55.73076228125,32.836933,55.88834428125Q32.207848,56.04591728125,31.571785,56.17243928125Q30.935722,56.29895828125,30.29422,56.39411928125Q29.652716,56.48928028125,29.007317,56.55284928125Q28.361916,56.61641328125,27.714174,56.64823528125Q27.066433,56.68005328125,26.41791,56.68005728125Q25.769386,56.68005328125,25.121643,56.64823528125Q24.473904,56.61641328125,23.828503,56.55284928125Q23.183102,56.48928028125,22.541595,56.39411928125Q21.900093,56.29895828125,21.26403,56.17243928125Q20.627968,56.04591728125,19.99888,55.88834028125Q19.369793,55.73075828125,18.749195,55.54250328125Q18.128597,55.35424828125,17.517982,55.13576528125Q16.90737,54.91728228125,16.308212,54.66910528125Q15.709055,54.42092528125,15.122797,54.14364628125Q14.53654,53.86636728125,13.964594,53.56065728125Q13.392647,53.25494428125,12.83639,52.92153928125Q12.280132,52.58812728125,11.740904,52.22782928125Q11.201676,51.86753128125,10.680779,51.48120528125Q10.15988,51.09487928125,9.6585646,50.68346428125Q9.1572495,50.27204128125,8.6767254,49.83652128125Q8.1962013,49.40100128125,7.7376261,48.94242828125Q7.2790508,48.48385228125,6.8435287,48.00332628125Q6.4080076,47.52280428125,5.9965892,47.02148828125Q5.5851698,46.52017228125,5.1988449,45.99927528125Q4.81252,45.47837428125,4.45222,44.93914828125Q4.0919199,44.39992128125,3.7585123,43.84366628125Q3.4251046,43.28740728125,3.1193931,42.71546128125Q2.8136811,42.14351628125,2.536402,41.55725828125Q2.2591224,40.97100028125,2.0109434,40.37184128125Q1.7627645,39.77268228125,1.5442835,39.16207128125Q1.3258026,38.55146028125,1.1375463,37.93085828125Q0.9492898,37.31026028125,0.79171151,36.68117128125Q0.63413322,36.05208628125,0.50761265,35.41602328125Q0.38109204,34.77996028125,0.28593394,34.138458281249996Q0.19077581,33.49695428125,0.12720944,32.85155528125Q0.063643046,32.20615428125,0.031821523,31.55841228125Q0,30.91067128125,0,30.26214828125Q0,29.61362428125,0.031821523,28.96588128125Q0.063643046,28.31814228125,0.12720944,27.67274128125Q0.19077581,27.02734028125,0.28593391,26.38583328125Q0.38109204,25.74433128125,0.50761265,25.10826828125Q0.63413322,24.47220628125,0.79171151,23.84311828125Q0.9492898,23.21403128125,1.1375463,22.59343328125Q1.3258026,21.97283528125,1.5442836,21.36222028125Q1.7627645,20.75160828125,2.0109434,20.15245028125Q2.2591224,19.55329328125,2.536402,18.96703528125Q2.8136814,18.380778281250002,3.1193933,17.808832281249998Q3.4251049,17.23688528125,3.7585123,16.68062828125Q4.0919199,16.124370281250002,4.45222,15.58514228125Q4.81252,15.04591428125,5.1988449,14.52501728125Q5.5851698,14.00411828125,5.9965887,13.50280288125Q6.4080076,13.00148778125,6.8435292,12.52096368125Q7.2790508,12.04043958125,7.7376261,11.58186438125Q8.1962013,11.12328908125,8.6767254,10.68776698125Q9.1572495,10.252245881250001,9.6585646,9.840827481249999Q10.15988,9.42940808125,10.680779,9.043083181250001Q11.201677,8.65675828125,11.740905,8.29645828125Q12.280132,7.93615818125,12.83639,7.60275058125Q13.392647,7.26934288125,13.964594,6.96363138125Q14.53654,6.65791938125,15.122797,6.38064028125Q15.709055,6.10336068125,16.308212,5.85518168125Q16.90737,5.60700278125,17.517982,5.38852178125Q18.128597,5.17004088125,18.749195,4.98178458125Q19.369793,4.79352808125,19.99888,4.63594979125Q20.627968,4.47837150125,21.26403,4.35185093125Q21.900093,4.22533032125,22.541595,4.13017222125Q23.183102,4.03501409125,23.828503,3.97144772125Q24.473904,3.90788132725,25.121645,3.87605980425Q25.769386,3.84423828125,26.41791,3.84423828125Q27.066433,3.84423828125,27.714174,3.87605980425Q28.361916,3.90788132725,29.007317,3.97144772125Q29.652716,4.03501409125,30.29422,4.13017219125Q30.935722,4.22533032125,31.571785,4.35185093125Q32.207848,4.47837150125,32.836937,4.63594979125Q33.466026,4.79352808125,34.086624,4.98178458125Q34.707222,5.17004088125,35.317833,5.38852188125Q35.928444,5.60700278125,36.527603,5.85518168125Q37.126762,6.10336068125,37.71302,6.38064028125Q38.299278,6.65791968125,38.871223,6.9636315812500005Q39.443169,7.26934318125,39.999428,7.60275058125Q40.555683,7.93615818125,41.09491,8.29645828125Q41.634136,8.65675828125,42.155037,9.043083181250001Q42.675934,9.42940808125,43.17725,9.84082698125Q43.678566,10.252245881250001,44.159088,10.687767481249999Q44.639614,11.12328908125,45.09819,11.58186438125Q45.556763,12.04043958125,45.992283,12.52096368125Q46.427803,13.00148778125,46.839226,13.50280288125Q47.250641,14.00411828125,47.636967,14.52501728125Q48.023293,15.04591528125,48.383591,15.58514328125Q48.743889,16.124370281250002,49.077301,16.68062828125Q49.410709,17.23688528125,49.716423,17.808832281249998Q50.022133,18.380778281250002,50.299408,18.96703528125Q50.576687,19.55329328125,50.824867,20.15245028125Q51.073044,20.75160828125,51.291527,21.36222028125Q51.51001,21.97283528125,51.698269,22.59343328125Q51.886524,23.21403128125,52.044106,23.84311828125Q52.201679,24.47220628125,52.328201,25.10826828125Q52.45472,25.74433128125,52.549881,26.38583328125Q52.645042,27.02734028125,52.708611,27.67274128125Q52.772179,28.31814228125,52.803997,28.96588328125Q52.835819,29.61362428125,52.835819,30.26214828125ZM51.514923,30.26214828125Q51.514923,29.64604928125,51.484695,29.03069728125Q51.454464,28.41534028125,51.394077,27.80221128125Q51.333687,27.18907928125,51.243286,26.57965128125Q51.152885,25.97022228125,51.032688,25.36596128125Q50.912495,24.76170328125,50.762794,24.16406828125Q50.613098,23.56643628125,50.434254,22.97686728125Q50.255409,22.38729828125,50.047848,21.80721628125Q49.840294,21.22713328125,49.604523,20.65793428125Q49.368752,20.08873528125,49.105335,19.53178928125Q48.841919,18.974845281249998,48.551495,18.43149528125Q48.26107,17.888146281250002,47.944328,17.35970328125Q47.627594,16.83125828125,47.285309,16.31899228125Q46.943024,15.80672628125,46.576012,15.31187328125Q46.209007,14.81701828125,45.818161,14.34076928125Q45.427311,13.86452028125,45.013565,13.40802188125Q44.599819,12.95152478125,44.164173,12.51587768125Q43.728527,12.08023068125,43.272034,11.66648578125Q42.815533,11.25274088125,42.339287,10.86189268125Q41.863037,10.47104498125,41.368183,10.10403628125Q40.873329,9.73702768125,40.361061,9.394742481249999Q39.848797,9.05245738125,39.320354,8.735720681250001Q38.791908,8.418983481249999,38.248562,8.128557181249999Q37.705212,7.83813098125,37.148266,7.57471518125Q36.591316,7.31129978125,36.022118,7.07552978125Q35.452919,6.839759781250001,34.872833,6.6322028812500005Q34.292755,6.42464588125,33.703186,6.24580238125Q33.113617,6.066958881250001,32.515984,5.91725968125Q31.91835,5.76756028125,31.314093,5.64736578125Q30.709833,5.52717118125,30.100405,5.43677088125Q29.490976,5.34637078125,28.877846,5.28598288125Q28.264717,5.22559478125,27.649363,5.19536428125Q27.034006,5.16513388125,26.41791,5.16513388125Q25.801811,5.16513388125,25.186459,5.19536428125Q24.571102,5.22559478125,23.957973,5.28598288125Q23.344841,5.34637078125,22.735413,5.43677108125Q22.125984,5.52717118125,21.521723,5.64736578125Q20.917465,5.76756028125,20.31983,5.91725968125Q19.722198,6.0669591812500006,19.132629,6.24580288125Q18.54306,6.42464638125,17.962978,6.63220308125Q17.382895,6.839759781250001,16.813696,7.07553008125Q16.244497,7.31130028125,15.687551,7.57471558125Q15.130607,7.83813098125,14.587257,8.128557181249999Q14.043908,8.418983481249999,13.515465,8.735720681250001Q12.98702,9.05245778125,12.474754,9.394742981250001Q11.962488,9.73702808125,11.467635,10.104036781249999Q10.97278,10.47104548125,10.496531,10.861893681249999Q10.020282,11.25274178125,9.5637836,11.66648678125Q9.1072865,12.08023258125,8.6716394,12.51587868125Q8.2359924,12.95152478125,7.8222475,13.40802288125Q7.4085026,13.86452128125,7.0176544,14.34077028125Q6.6268067,14.81701928125,6.259798,15.31187228125Q5.8927894,15.80672628125,5.5505042,16.31899228125Q5.2082191,16.83125828125,4.8914824,17.35970228125Q4.5747452,17.888146281250002,4.2843189,18.43149528125Q3.9938927,18.974845281249998,3.7304769,19.53178928125Q3.4670615,20.08873528125,3.2312915,20.65793428125Q2.9955215,21.22713328125,2.7879646,21.80721428125Q2.5804076,22.38729828125,2.4015641,22.97686728125Q2.2227206,23.56643628125,2.0730214,24.16406828125Q1.923322,24.76170328125,1.8031275,25.36596128125Q1.6829329,25.97022228125,1.5925326,26.57965128125Q1.5021325,27.18907928125,1.4417446,27.80221128125Q1.3813565,28.41534028125,1.351126,29.03069728125Q1.3208954,29.64604928125,1.3208956,30.26214828125Q1.3208954,30.87824428125,1.351126,31.49359928125Q1.3813565,32.108955281250005,1.4417446,32.72208628125Q1.5021325,33.33521628125,1.5925328,33.944643281249995Q1.6829329,34.55407128125,1.8031275,35.15833128125Q1.923322,35.762588281250004,2.0730214,36.36022228125Q2.2227206,36.95785528125,2.4015644,37.54742428125Q2.5804079,38.13699328125,2.7879648,38.71707128125Q2.9955215,39.29715728125,3.2312915,39.86635628125Q3.4670615,40.43555428125,3.7304771,40.99250028125Q3.9938927,41.54944628125,4.2843189,42.09279628125Q4.5747452,42.63614628125,4.8914824,43.16458928125Q5.2082195,43.69303528125,5.5505047,44.20529928125Q5.8927898,44.71756728125,6.2597985,45.21242128125Q6.6268072,45.70727528125,7.0176554,46.18352528125Q7.4085035,46.65977128125,7.8222485,47.11627228125Q8.2359943,47.57276928125,8.6716404,48.00841528125Q9.1072865,48.44406128125,9.5637846,48.85780728125Q10.020283,49.27155328125,10.496532,49.66240328125Q10.972781,50.05324928125,11.467634,50.42025728125Q11.962488,50.78726228125,12.474754,51.12954728125Q12.98702,51.47183228125,13.515464,51.78857428125Q14.043908,52.10530828125,14.587257,52.39573628125Q15.130607,52.68616528125,15.687551,52.94957728125Q16.244497,53.21299028125,16.813696,53.44876128125Q17.382895,53.68453228125,17.962976,53.89208628125Q18.54306,54.09964328125,19.132629,54.27848828125Q19.722198,54.45733228125,20.31983,54.60703228125Q20.917465,54.75673328125,21.521723,54.87692628125Q22.125984,54.99712328125,22.735413,55.08752428125Q23.344841,55.17792528125,23.957973,55.23831528125Q24.571102,55.29869828125,25.186459,55.32892628125Q25.801811,55.35916128125,26.41791,55.35916128125Q27.034006,55.35916128125,27.649361,55.32893028125Q28.264717,55.29869828125,28.877848,55.23831528125Q29.490978,55.17792528125,30.100405,55.08752428125Q30.709833,54.99712328125,31.314093,54.87692628125Q31.91835,54.75673328125,32.515984,54.60703228125Q33.113617,54.45733628125,33.703186,54.27849228125Q34.292755,54.09964728125,34.872833,53.89208628125Q35.452919,53.68453228125,36.022118,53.44876128125Q36.591316,53.21299028125,37.148262,52.94957328125Q37.705208,52.68615728125,38.248558,52.39573328125Q38.791908,52.10530828125,39.320351,51.78856628125Q39.848797,51.47183228125,40.361061,51.12954728125Q40.873329,50.78726228125,41.368183,50.42025028125Q41.863037,50.05324528125,42.339287,49.66239928125Q42.815533,49.27154928125,43.272034,48.85780328125Q43.728531,48.44405728125,44.164177,48.00841128125Q44.599823,47.57276528125,45.013569,47.11627228125Q45.427315,46.65977128125,45.818165,46.18352528125Q46.209011,45.70727528125,46.576019,45.21242128125Q46.943024,44.71756728125,47.285309,44.20529928125Q47.627594,43.69303528125,47.944336,43.16459228125Q48.26107,42.63614628125,48.551498,42.09280028125Q48.841927,41.54945028125,49.105339,40.99250428125Q49.368752,40.43555428125,49.604523,39.86635628125Q49.840294,39.29715728125,50.047848,38.71707128125Q50.255405,38.13699328125,50.43425,37.54742428125Q50.613094,36.95785528125,50.762794,36.36022228125Q50.912495,35.762588281250004,51.032688,35.15833128125Q51.152885,34.55407128125,51.243286,33.944643281249995Q51.333687,33.33521428125,51.394077,32.722084281250005Q51.454464,32.108955281250005,51.484695,31.49360128125Q51.514923,30.87824428125,51.514923,30.26214828125Z" fill="#000000" fill-opacity="1"/></g><g><path d="M22.106555635878905,1.7331921386718747L22.106555635878905,0.00017713867187474364L28.362316625878904,0.00017713867187474364L28.362316625878904,30.053192138671875L26.460227025878908,30.053192138671875L26.460227025878908,1.7331921386718747L22.106555635878905,1.7331921386718747Z" fill="#000000" fill-opacity="1"/></g></g></svg>