<svg xmlns="http://www.w3.org/2000/svg" xmlns:xlink="http://www.w3.org/1999/xlink" fill="none" version="1.1" width="52.8358154296875" height="57.060546875" viewBox="0 0 52.8358154296875 57.060546875"><g><g><path d="M52.835819,30.642519375Q52.835819,31.291042375,52.803997,31.938783375Q52.772179,32.586525375,52.708611,33.231926375Q52.645042,33.877325375,52.549881,34.518829374999996Q52.45472,35.160331375,52.328201,35.796394375Q52.201679,36.432457375,52.044102,37.061546375Q51.88652,37.690635375,51.698265,38.311233375Q51.51001,38.931831375,51.291527,39.542442375Q51.073044,40.153053375,50.824867,40.752212375Q50.576687,41.351371375,50.299408,41.937629375Q50.022129,42.523887375,49.716419,43.095832375Q49.410706,43.667778375,49.077301,44.224037375Q48.743889,44.780292375,48.383591,45.319519375Q48.023293,45.858745375,47.636967,46.379646375Q47.250641,46.900543375,46.839226,47.401859375Q46.427803,47.903175375,45.992283,48.383697375Q45.556763,48.864223375,45.09819,49.322799375Q44.639614,49.781372375,44.159088,50.216892375Q43.678566,50.652412375,43.17725,51.063835375Q42.675934,51.475250375,42.155037,51.861576375Q41.634136,52.247902375,41.09491,52.608200375Q40.555683,52.968498375,39.999428,53.301910375Q39.443169,53.635318375,38.871223,53.941032375Q38.299278,54.246742375,37.71302,54.524017375Q37.126762,54.801296375,36.527603,55.049476375Q35.928444,55.297653375,35.317833,55.516136375Q34.707222,55.734619375,34.08662,55.922878375Q33.466022,56.111133375,32.836933,56.268715375Q32.207848,56.426288375,31.571785,56.552810375Q30.935722,56.679329375,30.29422,56.774490375Q29.652716,56.869651375,29.007317,56.933220375Q28.361916,56.996784375,27.714174,57.028606375Q27.066433,57.060424375,26.41791,57.060428375Q25.769386,57.060424375,25.121643,57.028606375Q24.473904,56.996784375,23.828503,56.933220375Q23.183102,56.869651375,22.541595,56.774490375Q21.900093,56.679329375,21.26403,56.552810375Q20.627968,56.426288375,19.99888,56.268711375Q19.369793,56.111129375,18.749195,55.922874375Q18.128597,55.734619375,17.517982,55.516136375Q16.90737,55.297653375,16.308212,55.049476375Q15.709055,54.801296375,15.122797,54.524017375Q14.53654,54.246738375,13.964594,53.941028375Q13.392647,53.635315375,12.83639,53.301910375Q12.280132,52.968498375,11.740904,52.608200375Q11.201676,52.247902375,10.680779,51.861576375Q10.15988,51.475250375,9.6585646,51.063835375Q9.1572495,50.652412375,8.6767254,50.216892375Q8.1962013,49.781372375,7.7376261,49.322799375Q7.2790508,48.864223375,6.8435287,48.383697375Q6.4080076,47.903175375,5.9965892,47.401859375Q5.5851698,46.900543375,5.1988449,46.379646375Q4.81252,45.858745375,4.45222,45.319519375Q4.0919199,44.780292375,3.7585123,44.224037375Q3.4251046,43.667778375,3.1193931,43.095832375Q2.8136811,42.523887375,2.536402,41.937629375Q2.2591224,41.351371375,2.0109434,40.752212375Q1.7627645,40.153053375,1.5442835,39.542442375Q1.3258026,38.931831375,1.1375463,38.311229375Q0.9492898,37.690631375,0.79171151,37.061542375Q0.63413322,36.432457375,0.50761265,35.796394375Q0.38109204,35.160331375,0.28593394,34.518829374999996Q0.19077581,33.877325375,0.12720944,33.231926375Q0.063643046,32.586525375,0.031821523,31.938783375Q0,31.291042375,0,30.642519375Q0,29.993995375,0.031821523,29.346252375Q0.063643046,28.698513375,0.12720944,28.053112375Q0.19077581,27.407711375,0.28593391,26.766204375Q0.38109204,26.124702375,0.50761265,25.488639375Q0.63413322,24.852577375,0.79171151,24.223489375Q0.9492898,23.594402375,1.1375463,22.973804375Q1.3258026,22.353206375,1.5442836,21.742591375Q1.7627645,21.131979375,2.0109434,20.532821375Q2.2591224,19.933664375,2.536402,19.347406375Q2.8136814,18.761149375000002,3.1193933,18.189203374999998Q3.4251049,17.617256375,3.7585123,17.060999375Q4.0919199,16.504741375000002,4.45222,15.965513375Q4.81252,15.426285375,5.1988449,14.905388375Q5.5851698,14.384489375,5.9965887,13.883173975Q6.4080076,13.381858875,6.8435292,12.901334775Q7.2790508,12.420810675,7.7376261,11.962235475Q8.1962013,11.503660175,8.6767254,11.068138075Q9.1572495,10.632616975000001,9.6585646,10.221198574999999Q10.15988,9.809779175,10.680779,9.423454275000001Q11.201677,9.037129375,11.740905,8.676829375Q12.280132,8.316529275,12.83639,7.983121675Q13.392647,7.649713975,13.964594,7.344002475Q14.53654,7.038290475,15.122797,6.761011375Q15.709055,6.483731775,16.308212,6.235552775Q16.90737,5.987373875,17.517982,5.768892875Q18.128597,5.550411975,18.749195,5.362155675Q19.369793,5.173899175,19.99888,5.016320885Q20.627968,4.858742595,21.26403,4.732222025Q21.900093,4.605701415,22.541595,4.510543315Q23.183102,4.415385185,23.828503,4.351818815Q24.473904,4.288252421,25.121645,4.256430898Q25.769386,4.224609375,26.41791,4.224609375Q27.066433,4.224609375,27.714174,4.256430898Q28.361916,4.288252421,29.007317,4.351818815Q29.652716,4.415385185,30.29422,4.510543285Q30.935722,4.605701415,31.571785,4.732222025Q32.207848,4.858742595,32.836937,5.016320885Q33.466026,5.173899175,34.086624,5.362155675Q34.707222,5.550411975,35.317833,5.768892975Q35.928444,5.987373875,36.527603,6.235552775Q37.126762,6.483731775,37.71302,6.761011375Q38.299278,7.038290775,38.871223,7.3440026750000005Q39.443169,7.649714275,39.999428,7.983121675Q40.555683,8.316529275,41.09491,8.676829375Q41.634136,9.037129375,42.155037,9.423454275000001Q42.675934,9.809779175,43.17725,10.221198075Q43.678566,10.632616975000001,44.159088,11.068138574999999Q44.639614,11.503660175,45.09819,11.962235475Q45.556763,12.420810675,45.992283,12.901334775Q46.427803,13.381858875,46.839226,13.883173975Q47.250641,14.384489375,47.636967,14.905388375Q48.023293,15.426286375,48.383591,15.965514375Q48.743889,16.504741375000002,49.077301,17.060999375Q49.410709,17.617256375,49.716423,18.189203374999998Q50.022133,18.761149375000002,50.299408,19.347406375Q50.576687,19.933664375,50.824867,20.532821375Q51.073044,21.131979375,51.291527,21.742591375Q51.51001,22.353206375,51.698269,22.973804375Q51.886524,23.594402375,52.044106,24.223489375Q52.201679,24.852577375,52.328201,25.488639375Q52.45472,26.124702375,52.549881,26.766204375Q52.645042,27.407711375,52.708611,28.053112375Q52.772179,28.698513375,52.803997,29.346254375Q52.835819,29.993995375,52.835819,30.642519375ZM51.514923,30.642519375Q51.514923,30.026420375,51.484695,29.411068375Q51.454464,28.795711375,51.394077,28.182582375Q51.333687,27.569450375,51.243286,26.960022375Q51.152885,26.350593375,51.032688,25.746332375Q50.912495,25.142074375,50.762794,24.544439375Q50.613098,23.946807375,50.434254,23.357238375Q50.255409,22.767669375,50.047848,22.187587375Q49.840294,21.607504375,49.604523,21.038305375Q49.368752,20.469106375,49.105335,19.912160375Q48.841919,19.355216374999998,48.551495,18.811866375Q48.26107,18.268517375000002,47.944328,17.740074375Q47.627594,17.211629375,47.285309,16.699363375Q46.943024,16.187097375,46.576012,15.692244375Q46.209007,15.197389375,45.818161,14.721140375Q45.427311,14.244891375,45.013565,13.788392975Q44.599819,13.331895875,44.164173,12.896248775Q43.728527,12.460601775,43.272034,12.046856875Q42.815533,11.633111975,42.339287,11.242263775Q41.863037,10.851416075,41.368183,10.484407375Q40.873329,10.117398775,40.361061,9.775113574999999Q39.848797,9.432828475,39.320354,9.116091775000001Q38.791908,8.799354574999999,38.248562,8.508928274999999Q37.705212,8.218502075,37.148266,7.955086275Q36.591316,7.691670875,36.022118,7.455900875Q35.452919,7.220130875000001,34.872833,7.0125739750000005Q34.292755,6.805016975,33.703186,6.626173475Q33.113617,6.447329975000001,32.515984,6.297630775Q31.91835,6.147931375,31.314093,6.027736875Q30.709833,5.907542275,30.100405,5.817141975Q29.490976,5.726741875,28.877846,5.666353975Q28.264717,5.605965875,27.649363,5.575735375Q27.034006,5.545504975,26.41791,5.545504975Q25.801811,5.545504975,25.186459,5.575735375Q24.571102,5.605965875,23.957973,5.666353975Q23.344841,5.726741875,22.735413,5.817142175Q22.125984,5.907542275,21.521723,6.027736875Q20.917465,6.147931375,20.31983,6.297630775Q19.722198,6.4473302750000006,19.132629,6.626173975Q18.54306,6.805017475,17.962978,7.012574175Q17.382895,7.220130875000001,16.813696,7.455901175Q16.244497,7.691671375,15.687551,7.955086675Q15.130607,8.218502075,14.587257,8.508928274999999Q14.043908,8.799354574999999,13.515465,9.116091775000001Q12.98702,9.432828875,12.474754,9.775114075000001Q11.962488,10.117399175,11.467635,10.484407874999999Q10.97278,10.851416575,10.496531,11.242264774999999Q10.020282,11.633112875,9.5637836,12.046857875Q9.1072865,12.460603675,8.6716394,12.896249775Q8.2359924,13.331895875,7.8222475,13.788393975Q7.4085026,14.244892375,7.0176544,14.721141375Q6.6268067,15.197390375,6.259798,15.692243375Q5.8927894,16.187097375,5.5505042,16.699363375Q5.2082191,17.211629375,4.8914824,17.740073375Q4.5747452,18.268517375000002,4.2843189,18.811866375Q3.9938927,19.355216374999998,3.7304769,19.912160375Q3.4670615,20.469106375,3.2312915,21.038305375Q2.9955215,21.607504375,2.7879646,22.187585375Q2.5804076,22.767669375,2.4015641,23.357238375Q2.2227206,23.946807375,2.0730214,24.544439375Q1.923322,25.142074375,1.8031275,25.746332375Q1.6829329,26.350593375,1.5925326,26.960022375Q1.5021325,27.569450375,1.4417446,28.182582375Q1.3813565,28.795711375,1.351126,29.411068375Q1.3208954,30.026420375,1.3208956,30.642519375Q1.3208954,31.258615375,1.351126,31.873970375Q1.3813565,32.489326375000005,1.4417446,33.102457375Q1.5021325,33.715587375,1.5925328,34.325014374999995Q1.6829329,34.934442375,1.8031275,35.538702375Q1.923322,36.142959375000004,2.0730214,36.740593375Q2.2227206,37.338226375,2.4015644,37.927795375Q2.5804079,38.517364375,2.7879648,39.097442375Q2.9955215,39.677528375,3.2312915,40.246727375Q3.4670615,40.815925375,3.7304771,41.372871375Q3.9938927,41.929817375,4.2843189,42.473167375Q4.5747452,43.016517375,4.8914824,43.544960375Q5.2082195,44.073406375,5.5505047,44.585670375Q5.8927898,45.097938375,6.2597985,45.592792375Q6.6268072,46.087646375,7.0176554,46.563896375Q7.4085035,47.040142375,7.8222485,47.496643375Q8.2359943,47.953140375,8.6716404,48.388786375Q9.1072865,48.824432375,9.5637846,49.238178375Q10.020283,49.651924375,10.496532,50.042774375Q10.972781,50.433620375,11.467634,50.800628375Q11.962488,51.167633375,12.474754,51.509918375Q12.98702,51.852203375,13.515464,52.168945375Q14.043908,52.485679375,14.587257,52.776107375Q15.130607,53.066536375,15.687551,53.329948375Q16.244497,53.593361375,16.813696,53.829132375Q17.382895,54.064903375,17.962976,54.272457375Q18.54306,54.480014375,19.132629,54.658859375Q19.722198,54.837703375,20.31983,54.987403375Q20.917465,55.137104375,21.521723,55.257297375Q22.125984,55.377494375,22.735413,55.467895375Q23.344841,55.558296375,23.957973,55.618686375Q24.571102,55.679069375,25.186459,55.709297375Q25.801811,55.739532375,26.41791,55.739532375Q27.034006,55.739532375,27.649361,55.709301375Q28.264717,55.679069375,28.877848,55.618686375Q29.490978,55.558296375,30.100405,55.467895375Q30.709833,55.377494375,31.314093,55.257297375Q31.91835,55.137104375,32.515984,54.987403375Q33.113617,54.837707375,33.703186,54.658863375Q34.292755,54.480018375,34.872833,54.272457375Q35.452919,54.064903375,36.022118,53.829132375Q36.591316,53.593361375,37.148262,53.329944375Q37.705208,53.066528375,38.248558,52.776104375Q38.791908,52.485679375,39.320351,52.168937375Q39.848797,51.852203375,40.361061,51.509918375Q40.873329,51.167633375,41.368183,50.800621375Q41.863037,50.433616375,42.339287,50.042770375Q42.815533,49.651920375,43.272034,49.238174375Q43.728531,48.824428375,44.164177,48.388782375Q44.599823,47.953136375,45.013569,47.496643375Q45.427315,47.040142375,45.818165,46.563896375Q46.209011,46.087646375,46.576019,45.592792375Q46.943024,45.097938375,47.285309,44.585670375Q47.627594,44.073406375,47.944336,43.544963375Q48.26107,43.016517375,48.551498,42.473171375Q48.841927,41.929821375,49.105339,41.372875375Q49.368752,40.815925375,49.604523,40.246727375Q49.840294,39.677528375,50.047848,39.097442375Q50.255405,38.517364375,50.43425,37.927795375Q50.613094,37.338226375,50.762794,36.740593375Q50.912495,36.142959375000004,51.032688,35.538702375Q51.152885,34.934442375,51.243286,34.325014374999995Q51.333687,33.715585375,51.394077,33.102455375000005Q51.454464,32.489326375000005,51.484695,31.873972375Q51.514923,31.258615375,51.514923,30.642519375Z" fill="#000000" fill-opacity="1"/></g><g><path d="M16.701242425878906,29.038696232421877Q24.647749525878908,23.543773232421877,29.233899525878904,18.429264232421872Q33.82004952587891,13.314758232421877,33.82004952587891,8.622936232421875Q33.82004952587891,5.537325232421875,32.192703525878905,3.592966232421876Q30.565360525878905,1.648609232421876,26.887988525878907,1.648609232421876Q23.210615125878906,1.648609232421876,21.266257325878907,3.888847232421874Q19.321898925878905,6.129085232421875,19.06828692587891,9.806459232421876L17.208466325878906,9.806459232421876Q17.504346825878905,5.156906232421875,20.082735025878907,2.5785182324218745Q22.661123225878907,0.00013123242187518258,26.887988525878907,0.00013123242187518258Q30.734436525878905,0.00013123242187518258,33.20715352587891,2.1558322324218757Q35.67987052587891,4.311533232421876,35.67987052587891,8.580667232421874Q35.67987052587891,13.864250232421874,30.840106525878905,19.232368232421877Q26.000347525878908,24.600487232421877,19.786854225878905,28.700550232421875L36.6520465258789,28.700550232421875L36.6520465258789,30.306759232421875L16.701242425878906,30.306759232421875L16.701242425878906,29.038696232421877Z" fill="#000000" fill-opacity="1"/></g></g></svg>