<svg xmlns="http://www.w3.org/2000/svg" xmlns:xlink="http://www.w3.org/1999/xlink" fill="none" version="1.1" width="52.8358154296875" height="56.55322265625" viewBox="0 0 52.8358154296875 56.55322265625"><g><g><path d="M52.835819,30.13519515625Q52.835819,30.78371815625,52.803997,31.43145915625Q52.772179,32.07920115625,52.708611,32.72460215625Q52.645042,33.37000115625,52.549881,34.011505156249996Q52.45472,34.65300715625,52.328201,35.28907015625Q52.201679,35.92513315625,52.044102,36.55422215625Q51.88652,37.18331115625,51.698265,37.80390915625Q51.51001,38.42450715625,51.291527,39.03511815625Q51.073044,39.64572915625,50.824867,40.24488815625Q50.576687,40.84404715625,50.299408,41.43030515625Q50.022129,42.01656315625,49.716419,42.58850815625Q49.410706,43.16045415625,49.077301,43.71671315625Q48.743889,44.27296815625,48.383591,44.81219515625Q48.023293,45.35142115625,47.636967,45.87232215625Q47.250641,46.39321915625,46.839226,46.89453515625Q46.427803,47.39585115625,45.992283,47.87637315625Q45.556763,48.35689915625,45.09819,48.81547515625Q44.639614,49.27404815625,44.159088,49.70956815625Q43.678566,50.14508815625,43.17725,50.55651115625Q42.675934,50.96792615625,42.155037,51.35425215625Q41.634136,51.74057815625,41.09491,52.10087615625Q40.555683,52.46117415625,39.999428,52.79458615625Q39.443169,53.12799415625,38.871223,53.43370815625Q38.299278,53.73941815625,37.71302,54.01669315625Q37.126762,54.29397215625,36.527603,54.54215215625Q35.928444,54.79032915625,35.317833,55.00881215625Q34.707222,55.22729515625,34.08662,55.41555415625Q33.466022,55.60380915625,32.836933,55.76139115625Q32.207848,55.91896415625,31.571785,56.04548615625Q30.935722,56.17200515625,30.29422,56.26716615625Q29.652716,56.36232715625,29.007317,56.42589615625Q28.361916,56.48946015625,27.714174,56.52128215625Q27.066433,56.55310015625,26.41791,56.55310415625Q25.769386,56.55310015625,25.121643,56.52128215625Q24.473904,56.48946015625,23.828503,56.42589615625Q23.183102,56.36232715625,22.541595,56.26716615625Q21.900093,56.17200515625,21.26403,56.04548615625Q20.627968,55.91896415625,19.99888,55.76138715625Q19.369793,55.60380515625,18.749195,55.41555015625Q18.128597,55.22729515625,17.517982,55.00881215625Q16.90737,54.79032915625,16.308212,54.54215215625Q15.709055,54.29397215625,15.122797,54.01669315625Q14.53654,53.73941415625,13.964594,53.43370415625Q13.392647,53.12799115625,12.83639,52.79458615625Q12.280132,52.46117415625,11.740904,52.10087615625Q11.201676,51.74057815625,10.680779,51.35425215625Q10.15988,50.96792615625,9.6585646,50.55651115625Q9.1572495,50.14508815625,8.6767254,49.70956815625Q8.1962013,49.27404815625,7.7376261,48.81547515625Q7.2790508,48.35689915625,6.8435287,47.87637315625Q6.4080076,47.39585115625,5.9965892,46.89453515625Q5.5851698,46.39321915625,5.1988449,45.87232215625Q4.81252,45.35142115625,4.45222,44.81219515625Q4.0919199,44.27296815625,3.7585123,43.71671315625Q3.4251046,43.16045415625,3.1193931,42.58850815625Q2.8136811,42.01656315625,2.536402,41.43030515625Q2.2591224,40.84404715625,2.0109434,40.24488815625Q1.7627645,39.64572915625,1.5442835,39.03511815625Q1.3258026,38.42450715625,1.1375463,37.80390515625Q0.9492898,37.18330715625,0.79171151,36.55421815625Q0.63413322,35.92513315625,0.50761265,35.28907015625Q0.38109204,34.65300715625,0.28593394,34.011505156249996Q0.19077581,33.37000115625,0.12720944,32.72460215625Q0.063643046,32.07920115625,0.031821523,31.43145915625Q0,30.78371815625,0,30.13519515625Q0,29.48667115625,0.031821523,28.83892815625Q0.063643046,28.19118915625,0.12720944,27.54578815625Q0.19077581,26.90038715625,0.28593391,26.25888015625Q0.38109204,25.61737815625,0.50761265,24.98131515625Q0.63413322,24.34525315625,0.79171151,23.71616515625Q0.9492898,23.08707815625,1.1375463,22.46648015625Q1.3258026,21.84588215625,1.5442836,21.23526715625Q1.7627645,20.62465515625,2.0109434,20.02549715625Q2.2591224,19.42634015625,2.536402,18.84008215625Q2.8136814,18.253825156250002,3.1193933,17.681879156249998Q3.4251049,17.10993215625,3.7585123,16.55367515625Q4.0919199,15.99741715625,4.45222,15.45818915625Q4.81252,14.91896115625,5.1988449,14.39806415625Q5.5851698,13.87716515625,5.9965887,13.37584975625Q6.4080076,12.87453465625,6.8435292,12.39401055625Q7.2790508,11.91348645625,7.7376261,11.45491125625Q8.1962013,10.99633595625,8.6767254,10.56081385625Q9.1572495,10.125292756250001,9.6585646,9.713874356249999Q10.15988,9.30245495625,10.680779,8.916130056250001Q11.201677,8.52980515625,11.740905,8.16950515625Q12.280132,7.80920505625,12.83639,7.47579745625Q13.392647,7.14238975625,13.964594,6.83667825625Q14.53654,6.53096625625,15.122797,6.25368715625Q15.709055,5.97640755625,16.308212,5.72822855625Q16.90737,5.48004965625,17.517982,5.26156865625Q18.128597,5.04308775625,18.749195,4.85483145625Q19.369793,4.66657495625,19.99888,4.50899666625Q20.627968,4.35141837625,21.26403,4.22489780625Q21.900093,4.09837719625,22.541595,4.00321909625Q23.183102,3.90806096625,23.828503,3.84449459625Q24.473904,3.78092820225,25.121645,3.74910667925Q25.769386,3.71728515625,26.41791,3.71728515625Q27.066433,3.71728515625,27.714174,3.74910667925Q28.361916,3.78092820225,29.007317,3.84449459625Q29.652716,3.90806096625,30.29422,4.00321906625Q30.935722,4.09837719625,31.571785,4.22489780625Q32.207848,4.35141837625,32.836937,4.50899666625Q33.466026,4.66657495625,34.086624,4.85483145625Q34.707222,5.04308775625,35.317833,5.26156875625Q35.928444,5.48004965625,36.527603,5.72822855625Q37.126762,5.97640755625,37.71302,6.25368715625Q38.299278,6.53096655625,38.871223,6.8366784562500005Q39.443169,7.14239005625,39.999428,7.47579745625Q40.555683,7.80920505625,41.09491,8.16950515625Q41.634136,8.52980515625,42.155037,8.916130056250001Q42.675934,9.30245495625,43.17725,9.71387385625Q43.678566,10.125292756250001,44.159088,10.560814356249999Q44.639614,10.99633595625,45.09819,11.45491125625Q45.556763,11.91348645625,45.992283,12.39401055625Q46.427803,12.87453465625,46.839226,13.37584975625Q47.250641,13.87716515625,47.636967,14.39806415625Q48.023293,14.91896215625,48.383591,15.45819015625Q48.743889,15.99741715625,49.077301,16.55367515625Q49.410709,17.10993215625,49.716423,17.681879156249998Q50.022133,18.253825156250002,50.299408,18.84008215625Q50.576687,19.42634015625,50.824867,20.02549715625Q51.073044,20.62465515625,51.291527,21.23526715625Q51.51001,21.84588215625,51.698269,22.46648015625Q51.886524,23.08707815625,52.044106,23.71616515625Q52.201679,24.34525315625,52.328201,24.98131515625Q52.45472,25.61737815625,52.549881,26.25888015625Q52.645042,26.90038715625,52.708611,27.54578815625Q52.772179,28.19118915625,52.803997,28.83893015625Q52.835819,29.48667115625,52.835819,30.13519515625ZM51.514923,30.13519515625Q51.514923,29.51909615625,51.484695,28.90374415625Q51.454464,28.28838715625,51.394077,27.67525815625Q51.333687,27.06212615625,51.243286,26.45269815625Q51.152885,25.84326915625,51.032688,25.23900815625Q50.912495,24.63475015625,50.762794,24.03711515625Q50.613098,23.43948315625,50.434254,22.84991415625Q50.255409,22.26034515625,50.047848,21.68026315625Q49.840294,21.10018015625,49.604523,20.53098115625Q49.368752,19.96178215625,49.105335,19.40483615625Q48.841919,18.847892156249998,48.551495,18.30454215625Q48.26107,17.761193156250002,47.944328,17.23275015625Q47.627594,16.70430515625,47.285309,16.19203915625Q46.943024,15.67977315625,46.576012,15.18492015625Q46.209007,14.69006515625,45.818161,14.21381615625Q45.427311,13.73756715625,45.013565,13.28106875625Q44.599819,12.82457165625,44.164173,12.38892455625Q43.728527,11.95327755625,43.272034,11.53953265625Q42.815533,11.12578775625,42.339287,10.73493955625Q41.863037,10.34409185625,41.368183,9.97708315625Q40.873329,9.61007455625,40.361061,9.267789356249999Q39.848797,8.92550425625,39.320354,8.608767556250001Q38.791908,8.292030356249999,38.248562,8.001604056249999Q37.705212,7.71117785625,37.148266,7.44776205625Q36.591316,7.18434665625,36.022118,6.94857665625Q35.452919,6.712806656250001,34.872833,6.5052497562500005Q34.292755,6.29769275625,33.703186,6.11884925625Q33.113617,5.940005756250001,32.515984,5.79030655625Q31.91835,5.64060715625,31.314093,5.52041265625Q30.709833,5.40021805625,30.100405,5.30981775625Q29.490976,5.21941765625,28.877846,5.15902975625Q28.264717,5.09864165625,27.649363,5.06841115625Q27.034006,5.03818075625,26.41791,5.03818075625Q25.801811,5.03818075625,25.186459,5.06841115625Q24.571102,5.09864165625,23.957973,5.15902975625Q23.344841,5.21941765625,22.735413,5.30981795625Q22.125984,5.40021805625,21.521723,5.52041265625Q20.917465,5.64060715625,20.31983,5.79030655625Q19.722198,5.9400060562500006,19.132629,6.11884975625Q18.54306,6.29769325625,17.962978,6.50524995625Q17.382895,6.712806656250001,16.813696,6.94857695625Q16.244497,7.18434715625,15.687551,7.44776245625Q15.130607,7.71117785625,14.587257,8.001604056249999Q14.043908,8.292030356249999,13.515465,8.608767556250001Q12.98702,8.92550465625,12.474754,9.267789856250001Q11.962488,9.61007495625,11.467635,9.977083656249999Q10.97278,10.34409235625,10.496531,10.734940556249999Q10.020282,11.12578865625,9.5637836,11.53953365625Q9.1072865,11.95327945625,8.6716394,12.38892555625Q8.2359924,12.82457165625,7.8222475,13.28106975625Q7.4085026,13.73756815625,7.0176544,14.21381715625Q6.6268067,14.69006615625,6.259798,15.18491915625Q5.8927894,15.67977315625,5.5505042,16.19203915625Q5.2082191,16.70430515625,4.8914824,17.23274915625Q4.5747452,17.761193156250002,4.2843189,18.30454215625Q3.9938927,18.847892156249998,3.7304769,19.40483615625Q3.4670615,19.96178215625,3.2312915,20.53098115625Q2.9955215,21.10018015625,2.7879646,21.68026115625Q2.5804076,22.26034515625,2.4015641,22.84991415625Q2.2227206,23.43948315625,2.0730214,24.03711515625Q1.923322,24.63475015625,1.8031275,25.23900815625Q1.6829329,25.84326915625,1.5925326,26.45269815625Q1.5021325,27.06212615625,1.4417446,27.67525815625Q1.3813565,28.28838715625,1.351126,28.90374415625Q1.3208954,29.51909615625,1.3208956,30.13519515625Q1.3208954,30.75129115625,1.351126,31.36664615625Q1.3813565,31.98200215625,1.4417446,32.59513315625Q1.5021325,33.20826315625,1.5925328,33.817690156249995Q1.6829329,34.42711815625,1.8031275,35.03137815625Q1.923322,35.635635156250004,2.0730214,36.23326915625Q2.2227206,36.83090215625,2.4015644,37.42047115625Q2.5804079,38.01004015625,2.7879648,38.59011815625Q2.9955215,39.17020415625,3.2312915,39.73940315625Q3.4670615,40.30860115625,3.7304771,40.86554715625Q3.9938927,41.42249315625,4.2843189,41.96584315625Q4.5747452,42.50919315625,4.8914824,43.03763615625Q5.2082195,43.56608215625,5.5505047,44.07834615625Q5.8927898,44.59061415625,6.2597985,45.08546815625Q6.6268072,45.58032215625,7.0176554,46.05657215625Q7.4085035,46.53281815625,7.8222485,46.98931915625Q8.2359943,47.44581615625,8.6716404,47.88146215625Q9.1072865,48.31710815625,9.5637846,48.73085415625Q10.020283,49.14460015625,10.496532,49.53545015625Q10.972781,49.92629615625,11.467634,50.29330415625Q11.962488,50.66030915625,12.474754,51.00259415625Q12.98702,51.34487915625,13.515464,51.66162115625Q14.043908,51.97835515625,14.587257,52.26878315625Q15.130607,52.55921215625,15.687551,52.82262415625Q16.244497,53.08603715625,16.813696,53.32180815625Q17.382895,53.55757915625,17.962976,53.76513315625Q18.54306,53.97269015625,19.132629,54.15153515625Q19.722198,54.33037915625,20.31983,54.48007915625Q20.917465,54.62978015625,21.521723,54.74997315625Q22.125984,54.87017015625,22.735413,54.96057115625Q23.344841,55.05097215625,23.957973,55.11136215625Q24.571102,55.17174515625,25.186459,55.20197315625Q25.801811,55.23220815625,26.41791,55.23220815625Q27.034006,55.23220815625,27.649361,55.20197715625Q28.264717,55.17174515625,28.877848,55.11136215625Q29.490978,55.05097215625,30.100405,54.96057115625Q30.709833,54.87017015625,31.314093,54.74997315625Q31.91835,54.62978015625,32.515984,54.48007915625Q33.113617,54.33038315625,33.703186,54.15153915625Q34.292755,53.97269415625,34.872833,53.76513315625Q35.452919,53.55757915625,36.022118,53.32180815625Q36.591316,53.08603715625,37.148262,52.82262015625Q37.705208,52.55920415625,38.248558,52.26878015625Q38.791908,51.97835515625,39.320351,51.66161315625Q39.848797,51.34487915625,40.361061,51.00259415625Q40.873329,50.66030915625,41.368183,50.29329715625Q41.863037,49.92629215625,42.339287,49.53544615625Q42.815533,49.14459615625,43.272034,48.73085015625Q43.728531,48.31710415625,44.164177,47.88145815625Q44.599823,47.44581215625,45.013569,46.98931915625Q45.427315,46.53281815625,45.818165,46.05657215625Q46.209011,45.58032215625,46.576019,45.08546815625Q46.943024,44.59061415625,47.285309,44.07834615625Q47.627594,43.56608215625,47.944336,43.03763915625Q48.26107,42.50919315625,48.551498,41.96584715625Q48.841927,41.42249715625,49.105339,40.86555115625Q49.368752,40.30860115625,49.604523,39.73940315625Q49.840294,39.17020415625,50.047848,38.59011815625Q50.255405,38.01004015625,50.43425,37.42047115625Q50.613094,36.83090215625,50.762794,36.23326915625Q50.912495,35.635635156250004,51.032688,35.03137815625Q51.152885,34.42711815625,51.243286,33.817690156249995Q51.333687,33.20826115625,51.394077,32.595131156250005Q51.454464,31.98200215625,51.484695,31.36664815625Q51.514923,30.75129115625,51.514923,30.13519515625Z" fill="#000000" fill-opacity="1"/></g><g><path d="M15.242973525878906,22.317883013671874L15.242973525878906,20.838478013671875L31.347331525878907,0.00003101367187596793L33.50303252587891,0.00003101367187596793L33.50303252587891,20.669403013671875L38.32165952587891,20.669403013671875L38.32165952587891,22.317883013671874L33.50303252587891,22.317883013671874L33.50303252587891,29.926239013671875L31.643211525878908,29.926239013671875L31.643211525878908,22.317883013671874L15.242973525878906,22.317883013671874ZM31.685481525878906,2.282537013671874L17.483212425878907,20.669403013671875L31.685481525878906,20.669403013671875L31.685481525878906,2.282537013671874Z" fill="#000000" fill-opacity="1"/></g></g></svg>