<svg xmlns="http://www.w3.org/2000/svg" xmlns:xlink="http://www.w3.org/1999/xlink" fill="none" version="1.1" width="48" height="48" viewBox="0 0 48 48"><defs><clipPath id="master_svg0_30_4187"><rect x="38.769229888916016" y="9.230768203735352" width="29.538461685180664" height="29.538461685180664" rx="0"/></clipPath></defs><g><g><ellipse cx="24" cy="24" rx="24" ry="24" fill="#FFFFFF" fill-opacity="1"/><path d="M48,24Q48,24.589167,47.971088,25.177626Q47.942181,25.766083,47.884434,26.352413Q47.826683,26.938744,47.740234,27.52153Q47.653786,28.104321,47.538841,28.682167Q47.423901,29.260014,47.280746,29.831526Q47.137589,30.403034,46.966568,30.966833Q46.79554,31.530628,46.597054,32.085354Q46.398567,32.640079,46.173103,33.184399Q45.947639,33.728718,45.69574,34.261322Q45.44384,34.793922,45.166107,35.313522Q44.888374,35.833122,44.58548,36.338467Q44.282589,36.843811,43.955265,37.333683Q43.627941,37.823559,43.276978,38.29678Q42.92601,38.770004,42.55225,39.225437Q42.17849,39.680866,41.782829,40.117409Q41.387169,40.553955,40.970562,40.970558Q40.553959,41.387161,40.117416,41.782825Q39.680874,42.178486,39.225445,42.55225Q38.770012,42.92601,38.296787,43.276974Q37.823563,43.627941,37.333687,43.955265Q36.843811,44.282589,36.338467,44.585484Q35.833122,44.888374,35.313526,45.166107Q34.793922,45.44384,34.261322,45.69574Q33.728722,45.947639,33.184402,46.173103Q32.640083,46.398567,32.085358,46.597054Q31.53063,46.79554,30.966835,46.966568Q30.403036,47.137589,29.831524,47.280746Q29.260014,47.423901,28.682167,47.538841Q28.104321,47.653786,27.521532,47.740231Q26.938744,47.826683,26.352413,47.884434Q25.766083,47.942181,25.177624,47.971092Q24.589167,48,24,48Q23.410831,48,22.822372,47.971088Q22.233917,47.942181,21.647587,47.884434Q21.061256,47.826683,20.478466,47.740234Q19.895676,47.653786,19.317829,47.538841Q18.739983,47.423901,18.168472,47.280746Q17.596964,47.137589,17.033167,46.966568Q16.469368,46.79554,15.914642,46.597054Q15.359916,46.398567,14.815597,46.173103Q14.271278,45.947639,13.738677,45.69574Q13.206077,45.44384,12.686478,45.166107Q12.166879,44.888374,11.661533,44.58548Q11.156188,44.282589,10.666313,43.955265Q10.176439,43.627941,9.7032156,43.276978Q9.2299919,42.92601,8.7745609,42.55225Q8.319128,42.17849,7.8825846,41.782829Q7.4460411,41.387169,7.0294371,40.970562Q6.612833,40.553959,6.2171731,40.117416Q5.8215127,39.680874,5.4477491,39.225445Q5.0739851,38.770012,4.7230191,38.296787Q4.3720522,37.823563,4.0447288,37.333687Q3.7174053,36.843811,3.4145129,36.338467Q3.1116209,35.833122,2.8338895,35.313526Q2.5561581,34.793922,2.3042569,34.261322Q2.0523555,33.728722,1.8268911,33.184402Q1.6014266,32.640083,1.4029424,32.085358Q1.204458,31.53063,1.0334319,30.966835Q0.86240578,30.403036,0.71924984,29.831524Q0.57609397,29.260014,0.46115321,28.682167Q0.34621245,28.104321,0.25976375,27.521532Q0.173315,26.938744,0.11556655,26.352413Q0.057818096,25.766083,0.028909048,25.177624Q0,24.589167,0,24Q0,23.410831,0.028909048,22.822372Q0.057818096,22.233917,0.11556655,21.647587Q0.173315,21.061256,0.25976372,20.478466Q0.34621245,19.895676,0.46115321,19.317829Q0.57609397,18.739983,0.71924984,18.168472Q0.86240578,17.596964,1.0334319,17.033167Q1.204458,16.469368,1.4029423,15.914642Q1.6014266,15.359916,1.8268911,14.815597Q2.0523555,14.271278,2.3042569,13.738677Q2.5561583,13.206077,2.8338897,12.686478Q3.1116211,12.166879,3.4145136,11.661533Q3.7174058,11.156188,4.0447292,10.666313Q4.3720531,10.176439,4.7230191,9.7032156Q5.0739856,9.2299919,5.4477491,8.7745609Q5.8215127,8.319128,6.2171726,7.8825846Q6.612833,7.4460411,7.0294371,7.0294371Q7.4460411,6.612833,7.8825846,6.2171731Q8.319128,5.8215127,8.7745609,5.4477491Q9.2299919,5.0739851,9.7032156,4.7230191Q10.176439,4.3720522,10.666313,4.0447288Q11.156188,3.7174053,11.661533,3.4145129Q12.16688,3.1116209,12.68648,2.8338895Q13.206078,2.5561581,13.738678,2.3042569Q14.271278,2.0523555,14.815597,1.8268911Q15.359916,1.6014266,15.914642,1.4029424Q16.469368,1.204458,17.033167,1.0334319Q17.596964,0.86240578,18.168474,0.71924984Q18.739985,0.57609397,19.317831,0.46115321Q19.895676,0.34621245,20.478466,0.25976375Q21.061256,0.173315,21.647587,0.11556655Q22.233917,0.057818096,22.822372,0.028909048Q23.410831,0,24,0Q24.589167,0,25.177626,0.028909048Q25.766083,0.057818096,26.352413,0.11556655Q26.938744,0.173315,27.52153,0.25976372Q28.104321,0.34621245,28.682167,0.46115321Q29.260014,0.57609397,29.831526,0.71924984Q30.403034,0.86240578,30.966833,1.0334319Q31.530628,1.204458,32.085354,1.4029423Q32.640079,1.6014266,33.184399,1.8268911Q33.728718,2.0523555,34.261322,2.3042569Q34.793922,2.5561583,35.313522,2.8338897Q35.833122,3.1116211,36.338467,3.4145136Q36.843811,3.7174058,37.333683,4.0447292Q37.823559,4.3720531,38.29678,4.7230191Q38.770004,5.0739856,39.225437,5.4477491Q39.680866,5.8215127,40.117409,6.2171726Q40.553955,6.612833,40.970558,7.0294371Q41.387161,7.4460411,41.782825,7.8825846Q42.178486,8.319128,42.55225,8.7745609Q42.92601,9.2299919,43.276974,9.7032156Q43.627941,10.176439,43.955265,10.666313Q44.282589,11.156188,44.585484,11.661533Q44.888374,12.16688,45.166107,12.68648Q45.44384,13.206078,45.69574,13.738678Q45.947639,14.271278,46.173103,14.815597Q46.398567,15.359916,46.597054,15.914642Q46.79554,16.469368,46.966568,17.033167Q47.137589,17.596964,47.280746,18.168474Q47.423901,18.739985,47.538841,19.317831Q47.653786,19.895676,47.740231,20.478466Q47.826683,21.061256,47.884434,21.647587Q47.942181,22.233917,47.971092,22.822372Q48,23.410831,48,24ZM47.200001,24Q47.200001,23.430471,47.172058,22.861631Q47.144112,22.292789,47.088287,21.726004Q47.032459,21.159218,46.948895,20.595854Q46.865326,20.03249,46.754215,19.473904Q46.643108,18.915318,46.504723,18.362858Q46.366341,17.810398,46.201015,17.265394Q46.03569,16.72039,45.843819,16.184155Q45.651951,15.647918,45.434002,15.121743Q45.216053,14.595568,44.972549,14.080722Q44.729046,13.565875,44.460575,13.063597Q44.192101,12.561317,43.899303,12.072817Q43.606506,11.584316,43.290092,11.110771Q42.973679,10.637226,42.634411,10.179777Q42.295143,9.7223282,41.933842,9.2820768Q41.572536,8.8418255,41.190067,8.4198322Q40.807594,7.9978395,40.404877,7.5951223Q40.002159,7.1924047,39.58017,6.8099337Q39.158176,6.4274616,38.717926,6.0661573Q38.277672,5.7048521,37.820221,5.3655844Q37.36277,5.0263176,36.889225,4.7099047Q36.41568,4.3934917,35.927181,4.1006956Q35.438683,3.8079,34.936405,3.5394263Q34.434128,3.2709527,33.919277,3.0274482Q33.40443,2.7839434,32.878254,2.5659945Q32.352081,2.3480458,31.815845,2.1561775Q31.279608,1.9643093,30.734604,1.7989841Q30.189598,1.6336589,29.637138,1.4952748Q29.084679,1.3568908,28.526094,1.2457814Q27.96751,1.1346719,27.404146,1.0511049Q26.840782,0.96753788,26.273998,0.91171443Q25.707212,0.85589087,25.138371,0.82794541Q24.569527,0.80000001,24,0.80000001Q23.430471,0.80000001,22.861631,0.82794547Q22.292789,0.85589087,21.726004,0.91171438Q21.159218,0.96753782,20.595854,1.0511049Q20.03249,1.1346719,19.473904,1.2457814Q18.915318,1.3568908,18.362858,1.4952748Q17.810398,1.6336589,17.265394,1.7989841Q16.72039,1.9643093,16.184155,2.1561775Q15.647918,2.3480458,15.121743,2.5659945Q14.595568,2.7839434,14.080722,3.0274479Q13.565875,3.2709527,13.063597,3.5394263Q12.561317,3.8079,12.072817,4.1006956Q11.584316,4.3934917,11.110771,4.7099047Q10.637226,5.0263176,10.179777,5.3655849Q9.7223282,5.7048521,9.2820768,6.0661573Q8.8418255,6.4274616,8.4198322,6.8099332Q7.9978395,7.1924047,7.5951223,7.5951223Q7.1924047,7.9978395,6.8099337,8.4198322Q6.4274616,8.8418245,6.0661573,9.2820759Q5.7048521,9.7223272,5.3655844,10.179776Q5.0263176,10.637226,4.7099047,11.11077Q4.3934917,11.584316,4.1006956,12.072817Q3.8079,12.561317,3.5394263,13.063597Q3.2709527,13.565875,3.0274482,14.080722Q2.7839434,14.595568,2.5659945,15.121743Q2.3480458,15.647918,2.1561775,16.184155Q1.9643093,16.72039,1.7989841,17.265394Q1.6336589,17.810398,1.4952748,18.362858Q1.3568908,18.915318,1.2457814,19.473904Q1.1346719,20.03249,1.0511049,20.595854Q0.96753782,21.159218,0.91171438,21.726004Q0.85589087,22.292789,0.82794541,22.861629Q0.80000001,23.430471,0.80000001,24Q0.80000001,24.569527,0.82794547,25.138371Q0.85589087,25.707212,0.91171438,26.273998Q0.96753782,26.840782,1.0511049,27.404146Q1.1346719,27.967508,1.2457814,28.526093Q1.3568908,29.084675,1.4952748,29.637136Q1.6336589,30.189596,1.7989841,30.734602Q1.9643093,31.279606,2.1561775,31.81584Q2.3480458,32.352074,2.5659945,32.87825Q2.7839434,33.404427,3.0274479,33.919273Q3.2709527,34.43412,3.5394263,34.936401Q3.8079,35.438679,4.1006956,35.927177Q4.3934917,36.415676,4.7099047,36.889221Q5.0263176,37.362762,5.3655849,37.820217Q5.7048521,38.277664,6.0661573,38.717922Q6.4274616,39.158173,6.8099332,39.580162Q7.1924047,40.002155,7.5951223,40.404873Q7.9978395,40.807587,8.4198322,41.19006Q8.8418245,41.572533,9.2820759,41.933838Q9.7223272,42.295143,10.179776,42.634407Q10.637226,42.973675,11.11077,43.290089Q11.584316,43.606503,12.072817,43.8993Q12.561317,44.192097,13.063597,44.460571Q13.565875,44.729042,14.080722,44.972549Q14.595568,45.216053,15.121743,45.434002Q15.647918,45.651951,16.184155,45.843819Q16.72039,46.03569,17.265394,46.201019Q17.810398,46.366341,18.362858,46.504726Q18.915318,46.643108,19.473904,46.754215Q20.03249,46.865326,20.595854,46.948891Q21.159218,47.032459,21.726004,47.088287Q22.292789,47.144108,22.861629,47.172054Q23.430471,47.199997,24,47.200001Q24.569527,47.199997,25.138371,47.17205Q25.707212,47.144108,26.273998,47.088287Q26.840782,47.032459,27.404146,46.948895Q27.967508,46.865326,28.526093,46.754215Q29.084675,46.643108,29.637136,46.504723Q30.189596,46.366341,30.734602,46.201015Q31.279606,46.03569,31.81584,45.843819Q32.352074,45.651951,32.87825,45.434002Q33.404427,45.216053,33.919273,44.972549Q34.43412,44.729046,34.936401,44.460575Q35.438679,44.192101,35.927177,43.899303Q36.415676,43.606506,36.889221,43.290092Q37.362762,42.973679,37.820217,42.634411Q38.277664,42.295143,38.717922,41.933842Q39.158173,41.572536,39.580162,41.190067Q40.002155,40.807594,40.404873,40.404877Q40.807587,40.002159,41.19006,39.58017Q41.572533,39.158176,41.933838,38.717926Q42.295143,38.277672,42.634407,37.820221Q42.973675,37.36277,43.290089,36.889225Q43.606503,36.41568,43.8993,35.927181Q44.192097,35.438683,44.460571,34.936405Q44.729042,34.434128,44.972549,33.919277Q45.216053,33.40443,45.434002,32.878254Q45.651951,32.352081,45.843819,31.815845Q46.03569,31.279608,46.201019,30.734604Q46.366341,30.189598,46.504726,29.637138Q46.643108,29.084679,46.754215,28.526094Q46.865326,27.96751,46.948891,27.404146Q47.032459,26.840782,47.088287,26.273998Q47.144112,25.707212,47.172054,25.138371Q47.200001,24.569527,47.200001,24Z" fill="#D4D4D4" fill-opacity="1"/></g><g transform="matrix(0,1,-1,0,47.99999809265137,-29.538461685180664)" clip-path="url(#master_svg0_30_4187)"><g><path d="M66.17910373266602,24.66937260686035C66.18487573266601,24.660718906860353,66.19064373266602,24.65494920686035,66.19929673266601,24.646296506860352C66.20506673266601,24.63764290686035,66.21083473266602,24.631873106860354,66.21660473266601,24.62321950686035C66.22237373266601,24.617450706860353,66.22814173266602,24.608796106860353,66.231027732666,24.60302730686035L66.24833673266602,24.57706550686035C66.25410273266601,24.57129570686035,66.25699073266601,24.56552700686035,66.25987473266602,24.556873306860354C66.26564073266601,24.54821970686035,66.27141173266602,24.53668120686035,66.27718173266601,24.52802660686035C66.28006573266602,24.522257806860353,66.28295173266602,24.51648810686035,66.28871873266601,24.51071830686035C66.29448873266601,24.499180806860352,66.30025873266601,24.490527106860352,66.30603073266602,24.47898860686035L66.31467973266601,24.461680406860353C66.32045173266602,24.450141906860352,66.32621773266601,24.44148830686035,66.33198973266602,24.42994980686035C66.33487473266601,24.42418100686035,66.33775673266601,24.41552730686035,66.34064273266601,24.409757606860353C66.34641273266601,24.40110400686035,66.34929673266602,24.38956550686035,66.35506673266602,24.38091090686035C66.35794973266601,24.37225820686035,66.36083573266602,24.36360360686035,66.36660373266602,24.35494990686035C66.36948773266602,24.346296306860353,66.37237373266602,24.33764220686035,66.37814473266602,24.32898900686035C66.38102673266602,24.31745000686035,66.38679473266602,24.30879590686035,66.38968273266602,24.29725690686035C66.39256673266601,24.29148820686035,66.39544873266601,24.28283450686035,66.39833473266602,24.277065706860352L66.40698973266602,24.24245020686035C66.40987173266602,24.236680506860353,66.40987173266602,24.23091170686035,66.41275973266602,24.22225710686035L66.42141373266601,24.18764260686035C66.42429773266602,24.18187280686035,66.42429773266602,24.173219206860352,66.42718173266601,24.16744950686035C66.43006473266601,24.15591140686035,66.43006473266601,24.14437290686035,66.43295073266601,24.135719306860352C66.43295073266601,24.12706610686035,66.43583473266602,24.121296406860353,66.43583473266602,24.11264280686035C66.43871873266602,24.10398860686035,66.43871873266602,24.09244970686035,66.43871873266602,24.08091120686035C66.43871873266602,24.072257506860353,66.44160473266601,24.06360390686035,66.44160473266601,24.054950706860353C66.44160473266601,24.046296106860353,66.44448873266602,24.037642006860352,66.44448873266602,24.02610400686035C66.44448873266602,24.01456550686035,66.44737273266601,24.00591130686035,66.44737273266601,23.994373306860354L66.44737273266601,23.968411906860354L66.44737273266601,23.936680306860353L66.44737273266601,23.92802670686035L66.44737273266601,23.91360430686035L66.44737273266601,23.896296506860352C66.45314173266601,23.599180706860352,66.34641273266601,23.296296106860353,66.12141073266602,23.06552650686035L59.91949073266602,16.69052740686035C59.475257732666016,16.234758216860353,58.74545273266602,16.223219756860352,58.28679673266602,16.66745048686035C57.831027732666016,17.111681286860353,57.81949073266601,17.84148880686035,58.26372173266601,18.30014260686035L62.616603732666015,22.77418090686035L41.78391573266602,22.77418090686035C41.14641577266602,22.77418090686035,40.630069732666016,23.29052690686035,40.630069732666016,23.92802670686035C40.630069732666016,24.56552700686035,41.14641577266602,25.08187290686035,41.78391573266602,25.08187290686035L62.61948973266601,25.08187290686035L58.25218373266601,29.71168090686035C57.813722732666015,30.17610390686035,57.836799732666016,30.90591090686035,58.29833573266602,31.34148790686035C58.520452732666016,31.552064906860352,58.806028732666014,31.655911906860354,59.08872073266602,31.655911906860354C59.394490732666014,31.655911906860354,59.70025973266601,31.534756906860352,59.92814473266601,31.29244990686035L66.13006573266601,24.71841140686035C66.13295173266602,24.71552660686035,66.13583573266601,24.71264270686035,66.13583573266601,24.709757806860353C66.14448973266602,24.70110420686035,66.15025673266601,24.695334406860354,66.15602673266602,24.686680806860352C66.16756473266602,24.683795906860354,66.17333573266602,24.67514230686035,66.17910373266602,24.66937260686035Z" fill="#333333" fill-opacity="1" style="mix-blend-mode:passthrough"/></g></g></g></svg>