<svg xmlns="http://www.w3.org/2000/svg" xmlns:xlink="http://www.w3.org/1999/xlink" fill="none" version="1.1" width="52" height="51.999996185302734" viewBox="0 0 52 51.999996185302734"><defs><clipPath id="master_svg0_69_00229"><rect x="0" y="0" width="52" height="51.999996185302734" rx="0"/></clipPath></defs><g clip-path="url(#master_svg0_69_00229)"><g><path d="M40.748302203125,49.247207390625L10.564922303125,49.247207390625C7.996929203125,49.248333390625,5.914720344595,47.166582390624995,5.915283203125,44.598589390625L5.915283203125,21.824643590625C5.914719848665,19.257050790625,7.996306203125,17.175463028015,10.563901403125,17.176025390625L40.747284203125,17.176025390625C43.314480203125,17.17602638244625,45.395443203125,19.257447490625,45.394882203125,21.824643590625L45.394882203125,44.598589390625C45.395443203125,47.165788390624996,43.314480203125,49.247207390625,40.747284203125,49.247207390625L40.748302203125,49.247207390625Z" fill="#FB705B" fill-opacity="1" style="mix-blend-mode:passthrough"/></g><g><path d="M0.81388181,12.881364517212L50.54533,12.881364517212C50.992039,12.88646347025,51.353077,13.24852186625,51.358177,13.69523024625L51.358177,23.37696265625C51.352673,23.82358865625,50.991955,24.18430765625,50.54533,24.18980765625L0.81388181,24.18980765625C0.3668597,24.18485765625,0.005528322,23.82397965625,0.00001652937,23.37696265625L0.00001652937,13.69523024625C-0.0028334304,13.24456944625,0.36322126,12.87851501465,0.81388181,12.881364517212Z" fill="#F03E41" fill-opacity="1" style="mix-blend-mode:passthrough"/></g><g><path d="M11.722528465625,9.8982410625C11.722528465625,9.8982410625,5.823535165625,8.7590341625,4.660870565625,8.3643398625L6.751626765625,11.3576907625L2.994384765625,12.8436585625C9.040947865625,13.8106335625,15.196346765625,13.8889725625,21.265556765625,13.0761905625L16.696490765625,11.0027732625C16.668953765624998,10.9793157625,11.723550765625,9.8972210625,11.723550765625,9.8972210625L11.722528465625,9.8982410625ZM15.946876765625,2.7590720525C14.465766765625,2.3543476925,12.885588665625,2.5370272595,11.535889665625,3.2690126925L10.723044865624999,8.4479689625C12.098649065625,7.5862502625,13.755844765625,7.2943200625,15.343106765625,7.6341042625C18.166138765625,8.8586001625,20.673951765625,10.7086839625,22.677074765625,13.0445745625L22.677074765625,9.5157856625C22.677074765625,9.5157856625,20.014161765625,3.4791084525000002,15.946876765625,2.7600921825L15.946876765625,2.7590720525ZM44.875808765625,11.3240346625L46.966563765625,8.3306832625C45.782481765625,8.7263975625,39.907962765625,9.8656053625,39.907962765625,9.8656053625L34.939101765625,10.9568776625L30.365955765625,13.0486555625C36.434249765625,13.8747585625,42.591273765625,13.7972475625,48.637130765625,12.8171425625L44.874786765625,11.3240346625L44.875808765625,11.3240346625ZM40.864616765625,8.4234919625L40.069106765625,3.2690124525C38.719833765625,2.5369521285,37.140063765625,2.3539129025,35.659141765625,2.7580519925C31.595933765625,3.4791084525000002,28.923846765625,9.516805662500001,28.923846765625,9.516805662500001L28.923846765625,13.0445745625C30.931766765625,10.7058353625,33.440023765625,8.848690462499999,36.262912765625,7.6106467625C37.850173765625,7.2708644625,39.507365765625,7.5627941625,40.882972765625,8.4245123625L40.864616765625,8.4245123625L40.864616765625,8.4234919625Z" fill="#FFCA3E" fill-opacity="1" style="mix-blend-mode:passthrough"/></g><g><path d="M22.31494140625,9.005615234375L29.072673806250002,9.005615234375L29.072673806250002,49.032894234375L22.31494140625,49.032894234375L22.31494140625,9.005615234375Z" fill="#FFCA3E" fill-opacity="1" style="mix-blend-mode:passthrough"/></g><g><path d="M22.315184265625,24.35290353125L29.072916265625,24.35290353125L29.072916265625,49.03402753125L22.315184265625,49.03402753125L22.315184265625,24.35290353125ZM17.555398465625,8.40195863125C14.607941865625,6.70487594125,11.099550695625,7.26275115825,10.727294385625,8.40195863125C10.309143515625,9.67885043125,12.399899865625,11.04549073125,15.417728465625,12.62630753125C17.796091565624998,13.24435563125,20.274403565625,13.37897973125,22.704780265625,13.02100183125C21.278146265625,11.19093153125,19.539796865625,9.62693473125,17.569676865625,8.400939031250001L17.555398465625,8.400939031250001L17.555398465625,8.40195863125ZM40.888239265625,8.40195863125C40.492529265624995,7.23929408525,37.011671265625,6.65796161125,34.060135265625,8.40195863125C32.097534265625,9.64022563125,30.367136265625,11.21287563125,28.947471265625,13.04853773125C31.379280265625,13.394435431249999,33.855312265625,13.26034163125,36.235544265624995,12.65384293125C39.238073265625005,11.068949431250001,41.305374265625005,9.70230773125,40.887222265625,8.42439663125L40.887222265625,8.40093943125L40.888239265625,8.40195863125Z" fill="#FFB82C" fill-opacity="1" style="mix-blend-mode:passthrough"/></g></g></svg>