<svg xmlns="http://www.w3.org/2000/svg" xmlns:xlink="http://www.w3.org/1999/xlink" fill="none" version="1.1" width="52" height="52" viewBox="0 0 52 52"><defs><clipPath id="master_svg0_69_00739"><rect x="0" y="0" width="52" height="52" rx="0"/></clipPath></defs><g clip-path="url(#master_svg0_69_00739)"><g><path d="M50.393215125,6.419353025L42.510239125,6.419353025L42.510239125,4.217314925C42.510239125,2.9689655249999998,41.496353125,1.955078125,40.248001125,1.955078125L12.816003125,1.955078125C11.567654125,1.955078125,10.553765325,2.968966225,10.553765325,4.217314925L10.553765325,6.419353025L2.826039125,6.419353025C1.602888165,6.419353025,0.611328125,7.410913425,0.611328125,8.634064225L0.611328125,19.504843125C0.611328125,23.398805125,3.779727425,26.567205125,7.673690825,26.567205125L10.987836125,26.567205125C12.486488125,32.913507124999995,17.765041125,37.796013125,24.320459125,38.705341125L24.320459125,45.900780125L16.317084125,45.900780125C15.093934125,45.900780125,14.102373125,46.892334125,14.102373125,48.115486125C14.102373125,49.338638125,15.093934125,50.330196125,16.317084125,50.330196125L37.272877125,50.330196125C38.496029125,50.330196125,39.487591125,49.338638125,39.487591125,48.115486125C39.487591125,46.892334125,38.496029125,45.900780125,37.272877125,45.900780125L28.749882125,45.900780125L28.749882125,38.705341125C35.305298125,37.796013125,40.583851125,32.913507124999995,42.082504125,26.567205125L45.548729125,26.567205125C49.442695125,26.567205125,52.611095125,23.398805125,52.611095125,19.504843125L52.611095125,8.637232325C52.607933125,7.414229825,51.616222125,6.419353025,50.393215125,6.419353025ZM10.553764325,22.137783125L7.673689325,22.137783125C6.222562825,22.137783125,5.043918125,20.959139125,5.043918125,19.508011125L5.043918125,10.851943925L10.556933425,10.851943925L10.556933425,22.137783125L10.553764325,22.137783125ZM18.832790125,22.137783125C18.812750125,23.297619125,17.866802125,24.227360125,16.706795125,24.227360125C15.546788125,24.227360125,14.600841125,23.297619125,14.580800125,22.137783125L14.580800125,11.830979325C14.600841125,10.671144525,15.546788125,9.741405525000001,16.706795125,9.741405525000001C17.866802125,9.741405525000001,18.812750125,10.671144525,18.832790125,11.830979325L18.832790125,22.137783125ZM48.178509125,19.508011125C48.178509125,20.959139125,46.996689125,22.137783125,45.548729125,22.137783125L42.513409125,22.137783125L42.513409125,10.851943925L48.181671125,10.851943925L48.181671125,19.508011125L48.178509125,19.508011125Z" fill="#FF8E12" fill-opacity="1" style="mix-blend-mode:passthrough"/></g><g><path d="M40.314541125,1.96483303745C40.292358125,1.96483303745,40.270183125,1.95849609375,40.248001125,1.95849609375L12.816003125,1.95849609375C11.567654125,1.95849609375,10.553765325,2.97238419375,10.553765325,4.22073289375L10.553765325,6.42277049375L2.826039125,6.42277049375C1.602888165,6.42276909375,0.611328125,7.41432949375,0.611328125,8.63748069375L0.611328125,19.50826109375C0.611328125,23.40222309375,3.779727425,26.57062309375,7.673690825,26.57062309375L10.987836125,26.57062309375C12.486488125,32.916925093749995,17.765041125,37.79942709375,24.320459125,38.70876309375L24.320459125,39.26639909375C34.586075125,33.98150609375,41.610412125,23.28816009375,41.610412125,10.94724659375C41.607254125,7.82320499375,41.150997125,4.8132252937499995,40.314541125,1.96483303745ZM10.553764325,22.13803309375L7.673689325,22.13803309375C6.222562825,22.13803309375,5.043918125,20.95938709375,5.043918125,19.50826109375L5.043918125,10.85219379375L10.556933425,10.85219379375L10.556933425,22.13803309375L10.553764325,22.13803309375ZM18.832790125,22.13803309375C18.812750125,23.29786909375,17.866802125,24.22761009375,16.706795125,24.22761009375C15.546788125,24.22761009375,14.600841125,23.29786909375,14.580800125,22.13803309375L14.580800125,11.83122829375C14.600841125,10.67139439375,15.546788125,9.741654893749999,16.706795125,9.741654893749999C17.866802125,9.741654893749999,18.812750125,10.67139439375,18.832790125,11.83122829375L18.832790125,22.13803309375Z" fill="#FCA315" fill-opacity="1" style="mix-blend-mode:passthrough"/></g><g><path d="M12.816003125,1.955078125C11.567654125,1.955078125,10.553765325,2.968966225,10.553765325,4.217314925L10.553765325,6.419353025L2.826039125,6.419353025C1.602888165,6.419353025,0.611328125,7.410913425,0.611328125,8.634064225L0.611328125,19.504843125C0.611328125,23.398805125,3.779727425,26.567205125,7.673690825,26.567205125L10.987836125,26.567205125C11.231802125,27.603269125,11.586663125,28.591810125,12.020734125,29.539163125C23.512518125,25.325189125,31.886597125,14.673033125,32.805431125,1.955078125L12.816003125,1.955078125ZM10.553765325,22.137783125L7.673690825,22.137783125C6.222562825,22.137783125,5.043919525,20.959139125,5.043919525,19.508011125L5.043919525,10.851943925L10.556933425,10.851943925L10.556933425,22.137783125L10.553765325,22.137783125ZM18.832794125,22.137783125C18.812752125,23.297619125,17.866808125,24.227360125,16.706800125,24.227360125C15.546790125,24.227360125,14.600843125,23.297619125,14.580802125,22.137783125L14.580802125,11.830979325C14.600843125,10.671144525,15.546790125,9.741405525000001,16.706800125,9.741405525000001C17.866808125,9.741405525000001,18.812752125,10.671144525,18.832794125,11.830979325L18.832794125,22.137783125Z" fill="#FCB138" fill-opacity="1" style="mix-blend-mode:passthrough"/></g><g><path d="M14.580800125,11.805630725C14.595546125,10.660752325,15.514573125,9.733320225,16.659269125,9.708151325C18.744076125,7.404724625,20.496200125,4.797132225,21.839601125,1.955078125L12.816003125,1.955078125C11.567654125,1.955078125,10.553765325,2.968966225,10.553765325,4.217314925L10.553765325,6.419352525L2.826039125,6.419352525C1.602888165,6.419352525,0.611328125,7.410912525,0.611328125,8.634063725L0.611328125,19.295729125C2.1353280249999997,18.925026125,3.614970725,18.443428125,5.040750025,17.860445125L5.040750025,10.851943925L10.553764325,10.851943925L10.553764325,14.958189125C11.982714125,14.014006125,13.326114125,12.958927125,14.580800125,11.805630725Z" fill="#FFC65E" fill-opacity="1" style="mix-blend-mode:passthrough"/></g></g></svg>