<svg xmlns="http://www.w3.org/2000/svg" xmlns:xlink="http://www.w3.org/1999/xlink" fill="none" version="1.1" width="52" height="52" viewBox="0 0 52 52"><defs><clipPath id="master_svg0_69_00592"><rect x="0" y="0" width="52" height="52" rx="0"/></clipPath></defs><g clip-path="url(#master_svg0_69_00592)"><g><path d="M48.96684690625,0L11.70018390625,0C6.78907300625,0,2.74462890625,3.4666665,2.74462890625,7.5111108L2.74462890625,46.799999C2.74462890625,46.799999,2.74462890625,47.088886,3.03351768625,47.088886L9.966850806250001,51.711109C10.54462810625,52,11.98907370625,52,12.56685070625,51.711109L18.63351590625,47.377773L24.70018390625,51.711109C25.27795990625,52,26.72240590625,52,27.30018190625,51.711109L33.36684790625,47.377773L39.43351390625,51.711109C40.01129190625,52,41.45573390625,52,42.03351190625,51.711109L48.96684690625,47.088886L49.25573690625,46.799999L49.25573690625,0L48.96684690625,0Z" fill="#FFD96B" fill-opacity="1" style="mix-blend-mode:passthrough"/></g><g><path d="M3.03351792625,47.088886L9.966850806250001,51.711109C10.54462810625,52,11.98907370625,52,12.56685070625,51.711109L18.63351590625,47.377773L24.70018390625,51.711109C25.27795990625,52,26.72240590625,52,27.30018190625,51.711109L33.36684790625,47.377773L39.43351390625,51.711109C40.01129190625,52,41.45573390625,52,42.03351190625,51.711109L48.96684690625,47.088886L49.25573690625,46.799999L49.25573690625,0L41.74462890625,0L2.74462890625,42.177776L3.03351792625,47.088886C2.74462890625,46.799999,2.74462890625,47.088886,3.03351792625,47.088886Z" fill="#FDC223" fill-opacity="1" style="mix-blend-mode:passthrough"/></g><g><path d="M44.63319371875,4.04443359375L14.29985901875,4.04443359375C10.25541421875,4.04443359375,7.07763671875,6.64443349375,7.07763671875,10.11110019375L7.07763671875,41.88887759375L7.36652549875,42.17776859375L12.85541391875,45.93332259375C13.43319181875,46.22220959375,14.29985901875,46.22220959375,14.87763641875,45.93332259375L19.78874871875,42.46665559375L24.69985771875,45.93332259375C25.27763571875,46.22220959375,26.14430471875,46.22220959375,26.72208071875,45.93332259375L31.63319171875,42.46665559375L36.54430371875,45.93332259375C37.122081718749996,46.22220959375,37.98874871875,46.22220959375,38.56652271875,45.93332259375L44.05541571875,42.17776859375L44.34430271875,41.88887759375L44.34430271875,4.04443359375L44.63319371875,4.04443359375Z" fill="#F9B721" fill-opacity="1" style="mix-blend-mode:passthrough"/></g><g><path d="M37.98874871875,4.04443359375L7.07763671875,37.55554159375L7.07763671875,41.88887759375L7.36652549875,42.17776859375L12.85541391875,45.93332259375C13.43319181875,46.22220959375,14.29985901875,46.22220959375,14.87763641875,45.93332259375L19.78874871875,42.46665559375L24.69985771875,45.93332259375C25.27763571875,46.22220959375,26.14430471875,46.22220959375,26.72208071875,45.93332259375L31.63319171875,42.46665559375L36.54430371875,45.93332259375C37.122081718749996,46.22220959375,37.98874871875,46.22220959375,38.56652271875,45.93332259375L44.05541571875,42.17776859375L44.34430271875,41.88887759375L44.34430271875,4.04443359375L37.98874871875,4.04443359375Z" fill="#F9AB10" fill-opacity="1" style="mix-blend-mode:passthrough"/></g><g><path d="M28.45543453125,16.75537109375L39.722099531249995,16.75537109375L39.722099531249995,19.06648139375L28.45543453125,19.06648139375L28.45543453125,16.75537109375ZM28.45543453125,22.82203819375L39.722099531249995,22.82203819375L39.722099531249995,25.13315009375L28.45543453125,25.13315009375L28.45543453125,22.82203819375ZM11.98876953125,31.777592093750002L40.01098853125,31.777592093750002L40.01098853125,34.66648109375L11.98876953125,34.66648109375L11.98876953125,31.777592093750002Z" fill="#D3830D" fill-opacity="1" style="mix-blend-mode:passthrough"/></g><g><path d="M24,22.703072Q24,23.704209,23.4808741,24.550626Q22.9617491,25.397042,21.95082,25.934016Q20.9398904,26.47099,19.5555558,26.525596999999998L19.5555558,27.999999000000003L18.3897996,27.999999000000003L18.3897996,26.507395000000002Q16.459016300000002,26.343572,15.275045500000001,25.351536Q14.091074683,24.359499,14.018214973,22.648463L17.333333500000002,22.648463Q17.4426231,23.740614,18.3897996,24.050055999999998L18.3897996,21.1740608Q16.969034399999998,20.8100109,16.12204,20.4641638Q15.275045500000001,20.1183157,14.63752276,19.353810799999998Q14,18.5893059,14,17.2605228Q14,15.604094700000001,15.229508299999999,14.6029572Q16.459016300000002,13.6018199,18.3897996,13.474401499999999L18.3897996,12L19.5555558,12L19.5555558,13.474401499999999Q21.468123900000002,13.6200225,22.5792351,14.5847547Q23.6903467,15.549487599999999,23.8178511,17.2605228L20.4845176,17.2605228Q20.3752279,16.2775879,19.5555558,15.9863479L19.5555558,18.8077345Q21.0673952,19.2263937,21.8870673,19.554038Q22.7067394,19.8816824,23.353369700000002,20.6370878Q24,21.3924904,24,22.703072ZM17.2969034,17.114902999999998Q17.2969034,17.5699654,17.5792346,17.8794079Q17.8615665,18.1888504,18.3897996,18.425483200000002L18.3897996,15.8953354Q17.8797817,15.9863479,17.5883422,16.2866893Q17.2969034,16.5870304,17.2969034,17.114902999999998ZM19.5555558,24.104664Q20.1020036,24.013652,20.4207649,23.667804Q20.7395263,23.321956999999998,20.7395263,22.812286999999998Q20.7395263,22.339022,20.438980100000002,22.038681Q20.138433499999998,21.7383394,19.5555558,21.5199089L19.5555558,24.104664Z" fill="#D3830D" fill-opacity="1"/></g></g></svg>