<svg xmlns="http://www.w3.org/2000/svg" xmlns:xlink="http://www.w3.org/1999/xlink" fill="none" version="1.1" width="36" height="36" viewBox="0 0 36 36"><defs><clipPath id="master_svg0_30_16627"><rect x="0" y="36" width="36" height="36" rx="0"/></clipPath></defs><g transform="matrix(0,-1,1,0,-36,36)" clip-path="url(#master_svg0_30_16627)"><g><path d="M32.637264093750005,48.094707443749996C31.84624909375,46.13650414375,30.68328109375,44.37904354375,29.18035109375,42.87154294375C27.67742109375,41.36404304375,25.92347509375,40.19580074375,23.96738009375,39.39951184375C22.07878909375,38.63029295375,20.08261509375,38.23900390645,18.03476409375,38.23583984375L18.01121109375,38.23583984375C15.97144509375,38.23583984375,13.98230409375,38.62150389375,12.09863279375,39.382285143749996C10.14042949375,40.17330074375,8.38296799375,41.33626964375,6.87546829375,42.83919904375C5.36796809375,44.34212874375,4.19972609375,46.09607504375,3.40343709375,48.05216784375C2.63421845375,49.94076284375,2.24292938225,51.93693384375,2.239765319824,53.98478484375C2.23660125745,56.03263684375,2.62261685375,58.03056684375,3.38621069375,59.92127084375C4.17722619375,61.87982584375,5.34019469375,63.63693384375,6.84312439375,65.14443584375C8.34605459375,66.65193584375,10.09999939375,67.82017484375,12.05609319375,68.61646684375C13.94468709375,69.38568484375,15.94085909375,69.77697384375,17.98871009375,69.78013584375L18.012265093750003,69.78013584375C20.05203009375,69.78013584375,22.04117009375,69.39447384375,23.92484309375,68.63369384375C25.88339609375,67.84267784375,27.64050709375,66.67971084375,29.14800609375,65.17678084375C30.65550609375,63.67385084375,31.82374809375,61.919902843749995,32.62003909375,59.96380984375C33.389255093749995,58.07521584375,33.78054809375,56.07904384375,33.78370809375,54.03119084375C33.78652409375,51.98298884375,33.40085809375,49.98576184375,32.637264093750005,48.094707443749996ZM27.55929609375,63.58349584375C25.00624809375,66.12915984375,21.61683509375,67.53013584375,18.012265093750003,67.53013584375L17.99222709375,67.53013584375C14.38027209375,67.52486384375,10.98663999375,66.11334184374999,8.43640569375,63.55572484375C5.8861712937499995,60.99810784375,4.48449179375,57.60025384375,4.489765193749999,53.98865284375C4.49503849375,50.377051843749996,5.9065622937499995,46.98306654375,8.46417899375,44.43283174375C11.01722529375,41.88716814375,14.40663909375,40.48619154375,18.01121109375,40.48619154375L18.03125009375,40.48619154375C21.64320209375,40.49146504375,25.03683509375,41.90298844375,27.58707009375,44.46060564375C32.85171909375,49.74037184375,32.83906209375,58.31884984375,27.55929609375,63.58349584375Z" fill="#3D3D3D" fill-opacity="0.699999988079071" style="mix-blend-mode:passthrough"/></g><g><path d="M15.08648351875,46.2508203165C14.66612341875,46.0766245275,14.182215718750001,46.1729341131,13.86058521875,46.4948047125L9.45410152875,50.9009375625C9.01464844875,51.3403906625,9.01464844875,52.0526566625,9.45410152875,52.4917578625C9.89355462875,52.9312109625,10.60582021875,52.9312109625,11.04492171875,52.4917578625L13.53081991875,50.0058593625L13.53081991875,60.7903910625C13.53081991875,61.4116020625,14.03460881875,61.9153910625,14.65581941875,61.9153910625C15.27703091875,61.9153910625,15.78081991875,61.4116020625,15.78081991875,60.7903910625L15.78081991875,47.2900390625C15.78106161875,46.8350231625,15.50694421875,46.4247503925,15.08648351875,46.2508203165ZM24.998435718750002,55.5886726625L22.51253671875,58.0745710625L22.51253671875,47.2900390625C22.51253671875,46.6688281325,22.00874771875,46.1650390625,21.38753671875,46.1650390625C20.76632671875,46.1650390625,20.26253771875,46.6688281325,20.26253771875,47.2900390625L20.26253771875,60.7903910625C20.262574718750002,61.4115580625,20.76601771875,61.9151570625,21.38718471875,61.9153910625C21.680038718749998,61.9153910625,21.96761471875,61.8011330625,22.18277171875,61.5859770625L26.58925671875,57.1794930625C27.02870971875,56.7400400625,27.02870971875,56.0277738625,26.58925671875,55.5886726625C26.15015371875,55.1492195625,25.43788871875,55.1492195625,24.998435718750002,55.5886726625Z" fill="#3D3D3D" fill-opacity="0.699999988079071" style="mix-blend-mode:passthrough"/></g></g></svg>